<svg id="visual" viewBox="0 0 900 450" width="900" height="450" xmlns="http://www.w3.org/2000/svg" xmlns:xlink="http://www.w3.org/1999/xlink" version="1.1"><path d="M0 91L13.7 84.3C27.3 77.7 54.7 64.3 82 58.3C109.3 52.3 136.7 53.7 163.8 55.8C191 58 218 61 245.2 64C272.3 67 299.7 70 327 73C354.3 76 381.7 79 409 73.8C436.3 68.7 463.7 55.3 491 53.8C518.3 52.3 545.7 62.7 573 61.8C600.3 61 627.7 49 654.8 50.5C682 52 709 67 736.2 67.8C763.3 68.7 790.7 55.3 818 49.3C845.3 43.3 872.7 44.7 886.3 45.3L900 46L900 0L886.3 0C872.7 0 845.3 0 818 0C790.7 0 763.3 0 736.2 0C709 0 682 0 654.8 0C627.7 0 600.3 0 573 0C545.7 0 518.3 0 491 0C463.7 0 436.3 0 409 0C381.7 0 354.3 0 327 0C299.7 0 272.3 0 245.2 0C218 0 191 0 163.8 0C136.7 0 109.3 0 82 0C54.7 0 27.3 0 13.7 0L0 0Z" fill="#adebb3"></path><path d="M0 190L13.7 198.3C27.3 206.7 54.7 223.3 82 218.2C109.3 213 136.7 186 163.8 171C191 156 218 153 245.2 163.5C272.3 174 299.7 198 327 203.2C354.3 208.3 381.7 194.7 409 194.7C436.3 194.7 463.7 208.3 491 214.3C518.3 220.3 545.7 218.7 573 199.8C600.3 181 627.7 145 654.8 130.8C682 116.7 709 124.3 736.2 137.8C763.3 151.3 790.7 170.7 818 167.7C845.3 164.7 872.7 139.3 886.3 126.7L900 114L900 44L886.3 43.3C872.7 42.7 845.3 41.3 818 47.3C790.7 53.3 763.3 66.7 736.2 65.8C709 65 682 50 654.8 48.5C627.7 47 600.3 59 573 59.8C545.7 60.7 518.3 50.3 491 51.8C463.7 53.3 436.3 66.7 409 71.8C381.7 77 354.3 74 327 71C299.7 68 272.3 65 245.2 62C218 59 191 56 163.8 53.8C136.7 51.7 109.3 50.3 82 56.3C54.7 62.3 27.3 75.7 13.7 82.3L0 89Z" fill="#2fd0d2"></path><path d="M0 303L13.7 309.7C27.3 316.3 54.7 329.7 82 320.7C109.3 311.7 136.7 280.3 163.8 258.7C191 237 218 225 245.2 237.7C272.3 250.3 299.7 287.7 327 292.8C354.3 298 381.7 271 409 262C436.3 253 463.7 262 491 269.5C518.3 277 545.7 283 573 277.8C600.3 272.7 627.7 256.3 654.8 245.2C682 234 709 228 736.2 235.5C763.3 243 790.7 264 818 258.7C845.3 253.3 872.7 221.7 886.3 205.8L900 190L900 112L886.3 124.7C872.7 137.3 845.3 162.7 818 165.7C790.7 168.7 763.3 149.3 736.2 135.8C709 122.3 682 114.7 654.8 128.8C627.7 143 600.3 179 573 197.8C545.7 216.7 518.3 218.3 491 212.3C463.7 206.3 436.3 192.7 409 192.7C381.7 192.7 354.3 206.3 327 201.2C299.7 196 272.3 172 245.2 161.5C218 151 191 154 163.8 169C136.7 184 109.3 211 82 216.2C54.7 221.3 27.3 204.7 13.7 196.3L0 188Z" fill="#00a8e6"></path><path d="M0 343L13.7 348.3C27.3 353.7 54.7 364.3 82 354.7C109.3 345 136.7 315 163.8 299.2C191 283.3 218 281.7 245.2 293.7C272.3 305.7 299.7 331.3 327 337.3C354.3 343.3 381.7 329.7 409 320.7C436.3 311.7 463.7 307.3 491 311.2C518.3 315 545.7 327 573 322.5C600.3 318 627.7 297 654.8 288.7C682 280.3 709 284.7 736.2 292.8C763.3 301 790.7 313 818 305.5C845.3 298 872.7 271 886.3 257.5L900 244L900 188L886.3 203.8C872.7 219.7 845.3 251.3 818 256.7C790.7 262 763.3 241 736.2 233.5C709 226 682 232 654.8 243.2C627.7 254.3 600.3 270.7 573 275.8C545.7 281 518.3 275 491 267.5C463.7 260 436.3 251 409 260C381.7 269 354.3 296 327 290.8C299.7 285.7 272.3 248.3 245.2 235.7C218 223 191 235 163.8 256.7C136.7 278.3 109.3 309.7 82 318.7C54.7 327.7 27.3 314.3 13.7 307.7L0 301Z" fill="#0074ee"></path><path d="M0 451L13.7 451C27.3 451 54.7 451 82 451C109.3 451 136.7 451 163.8 451C191 451 218 451 245.2 451C272.3 451 299.7 451 327 451C354.3 451 381.7 451 409 451C436.3 451 463.7 451 491 451C518.3 451 545.7 451 573 451C600.3 451 627.7 451 654.8 451C682 451 709 451 736.2 451C763.3 451 790.7 451 818 451C845.3 451 872.7 451 886.3 451L900 451L900 242L886.3 255.5C872.7 269 845.3 296 818 303.5C790.7 311 763.3 299 736.2 290.8C709 282.7 682 278.3 654.8 286.7C627.7 295 600.3 316 573 320.5C545.7 325 518.3 313 491 309.2C463.7 305.3 436.3 309.7 409 318.7C381.7 327.7 354.3 341.3 327 335.3C299.7 329.3 272.3 303.7 245.2 291.7C218 279.7 191 281.3 163.8 297.2C136.7 313 109.3 343 82 352.7C54.7 362.3 27.3 351.7 13.7 346.3L0 341Z" fill="#381fd1"></path></svg>